<svg t="1743665832122" class="icon" viewBox="0 0 1024 1024" version="1.1" xmlns="http://www.w3.org/2000/svg" p-id="3614" width="200" height="200"><path d="M585.64096 700.19072a26.9824 26.9824 0 0 1 19.072-46.05952h156.60544a142.6944 142.6944 0 0 0 101.65248-42.12224 142.81728 142.81728 0 0 0 42.15296-101.65248 142.6944 142.6944 0 0 0-42.15296-101.68832 142.79168 142.79168 0 0 0-101.65248-42.08128h-74.72128a26.9568 26.9568 0 0 1 0-53.9136h74.72128c52.83328 0 102.44608 20.57728 139.79648 57.92256a196.3008 196.3008 0 0 1 57.89184 139.79648c0 52.79744-20.54144 102.4768-57.89184 139.8272s-86.99392 57.89184-139.79648 57.89184h-156.64128a27.27424 27.27424 0 0 1-19.03616-7.92064z m-463.0016-50.04288A196.5824 196.5824 0 0 1 64.7168 510.35648c0.15872-109.14816 88.6016-197.59616 197.75488-197.75488h156.67712a26.9568 26.9568 0 1 1 0 53.9136H262.50752c-79.38048 0.09728-143.70816 64.42496-143.80544 143.80544 0 38.4256 14.94528 74.55744 42.08128 101.68832 27.136 27.14112 63.30368 42.12224 101.69344 42.0864l74.72128 0.03584a26.9568 26.9568 0 0 1 0 53.9136l-74.72128 0.03584a196.68992 196.68992 0 0 1-139.83744-57.9328z" p-id="3615"></path><path d="M263.1168 529.38752a26.91584 26.91584 0 0 1 19.072-46.02368h409.1648a26.97216 26.97216 0 1 1 0 53.94432H282.18368a26.83904 26.83904 0 0 1-19.06688-7.92064z" p-id="3616"></path><path d="M819.73248 202.48064c10.69568 10.69568 8.63744 30.07488-4.59264 43.30496L247.29088 813.63456c-13.22496 13.23008-32.6144 15.28832-43.30496 4.59776-10.69056-10.69568-8.63232-30.08 4.59264-43.31008L776.42752 207.07328c13.23008-13.23008 32.61952-15.2832 43.30496-4.59264z" p-id="3617"></path></svg>