<?xml version="1.0" standalone="no"?><!DOCTYPE svg PUBLIC "-//W3C//DTD SVG 1.1//EN" "http://www.w3.org/Graphics/SVG/1.1/DTD/svg11.dtd"><svg t="1737704014135" class="icon" viewBox="0 0 1024 1024" version="1.1" xmlns="http://www.w3.org/2000/svg" p-id="4213" xmlns:xlink="http://www.w3.org/1999/xlink" width="200" height="200"><path d="M64 128m128 0l640 0q128 0 128 128l0 502.144q0 128-128 128l-640 0q-128 0-128-128l0-502.144q0-128 128-128Z" fill="#FFF1F0" p-id="4214"></path><path d="M891.072 128C929.152 128 960 158.848 960 196.928v620.288c0 38.08-30.848 68.928-68.928 68.928H132.928A68.928 68.928 0 0 1 64 817.28V196.928C64 158.848 94.848 128 132.928 128h758.144z m0 68.928H132.928v620.288h758.144V196.928z" fill="#FF7875" p-id="4215"></path><path d="M305.28 265.856a103.36 103.36 0 1 0 0 206.72 103.36 103.36 0 0 0 0-206.72z m0 68.928a34.432 34.432 0 1 1 0 68.928 34.432 34.432 0 0 1 0-68.928zM415.68 677.12l228.224-273.408L960 720.128l-49.408 48.96-262.08-262.4-230.336 276.096L268.16 619.328 112.448 769.6 64 719.68 271.232 519.68z" fill="#FF7875" p-id="4216"></path></svg>