<svg viewBox="0 0 1024 1024" width="200" height="200">
    <path d="M217.856 218a16 16 0 0 1 12.608 6.15L402.06 443.78 573.655 224.15A16 16 0 0 1 586.263 218h82.39a8 8 0 0 1 6.305 12.925L455.358 512 676.52 795.075A8 8 0 0 1 670.217 808h-82.391a16 16 0 0 1-12.608-6.15L402.06 580.219 228.9 801.851A16 16 0 0 1 216.293 808h-82.39a8 8 0 0 1-6.305-12.925l221.163-283.076-219.6-281.074A8 8 0 0 1 135.465 218h82.391zM809.5 104c56.61 0 102.5 45.89 102.5 102.5 0 26.976-10.697 49.264-30.232 67.89l-0.807 0.766c-12.522 11.778-25.321 20.055-50.158 33.802l-11.76 6.469c-23.251 12.853-34.51 20.212-43.935 29.451-3.45 3.383-6.323 6.802-8.64 10.356l-0.237 0.366 137.791 0.378a8 8 0 0 1 7.978 8v36a8 8 0 0 1-8 8h-0.023l-189-0.535a8 8 0 0 1-7.977-8V381.5c0-29.405 11.17-53.621 31.704-73.753l0.86-0.838c13.776-13.316 28.004-22.493 55.676-37.74l8.57-4.706c22.672-12.5 33.27-19.313 42.074-27.706C855.644 227.45 860 218.375 860 206.5c0-27.89-22.61-50.5-50.5-50.5-27.611 0-50.047 22.16-50.493 49.665l-0.007 0.835v3.5a8 8 0 0 1-8 8h-36a8 8 0 0 1-8-8v-3.5c0-56.61 45.89-102.5 102.5-102.5z"></path>
</svg>